# xmcd
#
# Track frame offsets: 
#        150
#        26557
#        55078
#        72856
#        97192
#        142965
#        175998
#        198751
#        223421
#        244565
#        264620
#        284018
#        308247
#
# Disc length: 4451 seconds
#
# Revision: 0
# Processed by: cddbd v1.5.2PL0 Copyright (c) Steve Scherf et al.
# Submitted via: ExactAudioCopy v1.3
#
DISCID=c711610d
DTITLE=Keef Hartley - The Best Of
DYEAR=2015
DGENRE=Blues
TTITLE0=Sinnin' for You
TTITLE1=Just to Cry
TTITLE2=Not Foolish, Not Wise
TTITLE3=Believe in You
TTITLE4=The Time Is Near
TTITLE5=You Can't Take it with You
TTITLE6=Me and My Woman
TTITLE7=You Can Choose
TTITLE8=We Are all the Same
TTITLE9=Don't Sign It
TTITLE10=Heartbreakin' Woman
TTITLE11=Circles
TTITLE12=Australian Lady
EXTD=
EXTT0=
EXTT1=
EXTT2=
EXTT3=
EXTT4=
EXTT5=
EXTT6=
EXTT7=
EXTT8=
EXTT9=
EXTT10=
EXTT11=
EXTT12=
PLAYORDER=
